<?xml version="1.0" encoding="UTF-8"?>
<svg version="1.1" xmlns="http://www.w3.org/2000/svg" width="400" height="220">
<path d="M0 0 C5.83927841 3.39826858 8.836133 7.85836471 10.625 14.375 C10.9034729 17.6401062 10.9034729 17.6401062 10.94384766 21.20654297 C10.95389328 21.86090836 10.9639389 22.51527374 10.97428894 23.18946838 C11.00494662 25.33203325 11.02210683 27.4744742 11.0390625 29.6171875 C11.05778823 31.11077935 11.07736269 32.60436078 11.0977478 34.09793091 C11.14892678 38.01377194 11.18862827 41.92964721 11.22589111 45.84564209 C11.2660204 49.84770073 11.31707188 53.84961866 11.3671875 57.8515625 C11.46377807 65.69261197 11.54823635 73.53373147 11.625 81.375 C17.02087533 76.76684185 22.14520526 71.98134852 27.12329102 66.92675781 C28.17619324 65.86443687 28.17619324 65.86443687 29.25036621 64.78065491 C30.76002809 63.25724265 32.26860503 61.7327546 33.77618599 60.20728302 C36.16538849 57.7912328 38.55912278 55.37976176 40.95433044 52.96966553 C47.75925918 46.12217987 54.5613904 39.27199151 61.34741211 32.40576172 C65.51065377 28.19397451 69.68361737 23.99203619 73.86308098 19.79634857 C75.44912856 18.20041761 77.03151675 16.60084105 78.61010933 14.99753571 C80.81627111 12.75758432 83.03461219 10.53039851 85.25610352 8.30566406 C85.90097214 7.64484329 86.54584076 6.98402252 87.21025085 6.30317688 C91.96551818 1.57939026 96.93362543 -2.01620195 103.9375 -2.125 C114.57582556 -1.5016577 121.74381371 5.79585 128.7890625 13.05078125 C129.70714691 13.9759404 130.62523132 14.90109955 131.57113647 15.85429382 C133.98582874 18.28787625 136.38510814 20.73609616 138.78125 23.18792725 C141.23938214 25.69764502 143.7121253 28.19287977 146.18359375 30.68945312 C151.0116085 35.57073684 155.82345911 40.46767611 160.625 45.375 C164.2675656 43.66858151 166.60475319 41.63181802 169.4375 38.75 C170.24832031 37.93273438 171.05914062 37.11546875 171.89453125 36.2734375 C173.91520563 34.12845841 175.85288566 31.96908705 177.7734375 29.73828125 C182.00756913 24.87106745 186.47157756 20.23553996 191.00317383 15.64672852 C191.95945192 14.67384781 192.91032689 13.69562655 193.85571289 12.7121582 C200.67884202 5.61766132 207.88290599 -1.60182579 218.25 -2.1875 C228.83124902 -1.23634263 235.26595333 6.44801628 242.31762695 13.56591797 C243.4756529 14.72015631 244.63453574 15.87353548 245.79420471 17.02612305 C248.92708945 20.14509604 252.04733208 23.27643463 255.16498971 26.41061926 C258.43508809 29.69460962 261.71537783 32.96839326 264.9941864 36.24368286 C270.49607435 41.74287255 275.9898381 47.25007708 281.47875977 52.76220703 C287.82014177 59.13021609 294.17388504 65.48568135 300.53445846 71.83451736 C306.66143624 77.95070916 312.77988786 84.07536125 318.89439964 90.20401382 C321.49329249 92.80865732 324.09506961 95.41036819 326.69921303 98.00976181 C329.76528142 101.07105119 332.82378584 104.13970508 335.87665367 107.2141571 C336.99674654 108.33980464 338.11938102 109.46292979 339.24475098 110.58330154 C340.7830045 112.11557912 342.31168107 113.65682846 343.83833313 115.20065308 C344.69534978 116.06009962 345.55236643 116.91954617 346.43535328 117.80503654 C351.01662875 123.18202747 352.19853938 127.7395591 351.96484375 134.62890625 C351.17846696 140.9831923 348.61638808 144.88271311 343.625 148.8125 C338.73002135 152.3212054 333.606558 153.25455023 327.625 152.375 C319.2370509 149.43345026 313.51669892 143.95786646 307.40185547 137.71948242 C306.42609912 136.7423125 305.44923412 135.7662486 304.47135925 134.79119873 C301.84295715 132.16422012 299.23016499 129.52221241 296.62008047 126.87705016 C293.88118632 124.10671312 291.12794539 121.35070678 288.37625122 118.59309387 C283.17803322 113.37938984 277.99268336 108.15308291 272.81193268 102.92202789 C266.90884283 96.96288079 260.99139963 91.01807379 255.07275939 85.07437742 C242.90756312 72.85704181 230.76034573 60.62198487 218.625 48.375 C217.51418688 49.31963388 216.40444651 50.2655293 215.29515076 51.21194458 C214.67704749 51.73855242 214.05894423 52.26516026 213.42211056 52.80772591 C210.95866898 54.95611247 208.65135233 57.23668275 206.34765625 59.5546875 C204.96030273 60.946875 204.96030273 60.946875 203.54492188 62.3671875 C202.59239151 63.32806909 201.63991822 64.28900726 200.6875 65.25 C199.70791763 66.23460919 198.72810163 67.218986 197.74804688 68.203125 C195.37139748 70.59148203 192.99712644 72.98215212 190.625 75.375 C194.20190177 79.69874453 197.85652324 83.64153935 202.0625 87.375 C208.251692 92.97677213 214.20813523 98.81039636 220.12503052 104.69677734 C221.15970536 105.72532889 222.19620312 106.75205019 223.23458862 107.77685547 C224.71508473 109.23923835 226.18847112 110.70844378 227.66015625 112.1796875 C228.5200415 113.03546387 229.37992676 113.89124023 230.26586914 114.77294922 C236.37278777 121.50869782 237.94978902 126.53752951 237.83203125 135.43359375 C237.44196865 140.97542651 235.2636953 143.9710185 231.3125 147.625 C226.10889016 151.79225149 221.27068806 152.94790414 214.625 152.375 C200.55957781 149.27583918 188.39301908 132.26675043 178.5625 122.375 C177.149326 120.9567946 175.73591584 119.53882447 174.32226562 118.12109375 C171.23997115 115.02909108 168.1598924 111.93490207 165.08189392 108.83862305 C163.59856126 107.34843915 162.11232352 105.86119981 160.625 104.375 C160.07900146 104.93210159 159.53300293 105.48920319 158.97045898 106.06318665 C153.80555226 111.32856162 148.62852295 116.58157711 143.43768311 121.82137775 C140.76986609 124.51521287 138.10686868 127.21346549 135.45458984 129.92260742 C132.89154366 132.54025177 130.31623275 135.14524627 127.73220825 137.74217796 C126.75187809 138.73169828 125.77593543 139.72558664 124.80465698 140.7239933 C118.33860968 147.36324828 113.58163385 151.73678923 104.125 152.75 C94.5352551 151.72252733 89.62143834 147.1148791 83.05859375 140.47265625 C82.17969986 139.59854599 81.30080597 138.72443573 80.39527893 137.82383728 C78.54960522 135.98155422 76.71018324 134.13298902 74.87670898 132.27856445 C72.99279123 130.37666883 71.1040208 128.48316145 69.19995117 126.60180664 C66.45179886 123.88442341 63.7213947 121.15043718 60.99609375 118.41015625 C60.14107773 117.56526138 59.28606171 116.72036652 58.40513611 115.84986877 C57.63005203 115.0590239 56.85496796 114.26817902 56.05639648 113.45336914 C55.02336647 112.41437218 55.02336647 112.41437218 53.96946716 111.35438538 C52.625 109.375 52.625 109.375 52.76397705 107.29290771 C54.18132946 104.13578965 56.63658881 101.89558016 59.05078125 99.48046875 C59.59478073 98.92885574 60.13878021 98.37724274 60.69926453 97.80891418 C61.84958473 96.64780532 63.00388837 95.4906312 64.16186523 94.3371582 C65.93481606 92.56518247 67.68535909 90.77294352 69.43554688 88.97851562 C70.55598905 87.85286857 71.67769226 86.72847501 72.80078125 85.60546875 C73.32384354 85.0660112 73.84690582 84.52655365 74.38581848 83.9707489 C78.03403981 80.39083539 78.03403981 80.39083539 80.73876953 80.31835938 C83.08368104 81.63194687 84.73907421 83.13467323 86.62890625 85.05078125 C87.36947266 85.79650391 88.11003906 86.54222656 88.87304688 87.31054688 C89.63681641 88.09494141 90.40058594 88.87933594 91.1875 89.6875 C91.95513672 90.46029297 92.72277344 91.23308594 93.51367188 92.02929688 C96.78715104 95.34843922 99.89457633 98.58695444 102.625 102.375 C106.53709308 100.78084497 108.99718086 98.23606668 111.9375 95.25 C112.6648938 94.51185059 112.6648938 94.51185059 113.40698242 93.75878906 C117.31241829 89.76567086 121.02045683 85.63861314 124.625 81.375 C125.69074903 80.1296456 126.75720759 78.88489819 127.82421875 77.640625 C128.61638794 76.71685059 128.61638794 76.71685059 129.42456055 75.77441406 C129.82070557 75.31260742 130.21685059 74.85080078 130.625 74.375 C130.19791748 73.97821045 129.77083496 73.5814209 129.33081055 73.17260742 C120.60508376 65.05584291 111.97258546 56.88175552 103.625 48.375 C99.18190195 51.90928254 95.30919851 55.73940547 91.51098633 59.94897461 C83.33890669 68.89318198 74.75492744 77.42911555 66.19921875 86.00390625 C64.90492415 87.30244191 64.90492415 87.30244191 63.58448219 88.62721062 C59.03385133 93.19270953 54.48045023 97.75542283 49.92456055 102.31567383 C45.23286141 107.01289465 40.55057043 111.71932622 35.8702879 116.42791843 C32.2507523 120.06607437 28.62452936 123.69750825 24.99643898 127.32713127 C23.26643447 129.06015516 21.53892266 130.79567122 19.81400108 132.53375435 C17.40736691 134.95746435 14.99142321 137.37151023 12.57299805 139.78344727 C11.51693863 140.85332886 11.51693863 140.85332886 10.43954468 141.94482422 C4.49763056 147.83700768 -1.09420427 151.96878494 -9.625 152.625 C-15.95993935 152.20267071 -20.4771411 150.78215267 -24.75 145.9375 C-28.07999233 141.77966041 -29.62270583 138.54831103 -29.64242554 133.16436768 C-29.65095551 132.11024689 -29.65948547 131.0561261 -29.66827393 129.97006226 C-29.66736755 128.81881866 -29.66646118 127.66757507 -29.66552734 126.48144531 C-29.67224457 125.26476166 -29.67896179 124.048078 -29.68588257 122.79452515 C-29.70162834 119.45954413 -29.70823786 116.12481217 -29.70951414 112.78981113 C-29.71093698 110.70388539 -29.71520917 108.61798563 -29.72050858 106.53206635 C-29.73901024 99.24792325 -29.74717936 91.96385331 -29.74560547 84.6796875 C-29.74440528 77.90180971 -29.76548289 71.124251 -29.7970928 64.34645391 C-29.82329828 58.51868044 -29.83397092 52.69101086 -29.83269465 46.86317897 C-29.8321861 43.3864271 -29.83780908 39.9099586 -29.85905075 36.43326569 C-29.88212383 32.550763 -29.87288607 28.66869277 -29.86083984 24.78613281 C-29.87207886 23.64298615 -29.88331787 22.49983948 -29.89489746 21.322052 C-29.83657333 13.91488787 -28.99571499 8.04243389 -23.55859375 2.53515625 C-22.98238281 2.17292969 -22.40617187 1.81070312 -21.8125 1.4375 C-20.94431641 0.86708984 -20.94431641 0.86708984 -20.05859375 0.28515625 C-14.082629 -2.94546971 -6.11213908 -2.80576289 0 0 Z " fill="#14B1B2" transform="translate(40.375,13.625)"/>
<path d="M0 0 C1.98 0 3.96 0 6 0 C7.32 3.3 8.64 6.6 10 10 C11.32 6.7 12.64 3.4 14 0 C15.98 0 17.96 0 20 0 C20 6.6 20 13.2 20 20 C18.35 20 16.7 20 15 20 C14.67 18.02 14.34 16.04 14 14 C13.01 15.98 12.02 17.96 11 20 C10.01 20 9.02 20 8 20 C7.01 17.36 6.02 14.72 5 12 C4.67 14.64 4.34 17.28 4 20 C2.68 20 1.36 20 0 20 C0 13.4 0 6.8 0 0 Z " fill="#000000" transform="translate(308,190)"/>
<path d="M0 0 C1.98 0 3.96 0 6 0 C7.32 3.3 8.64 6.6 10 10 C11.32 6.7 12.64 3.4 14 0 C15.98 0 17.96 0 20 0 C20 6.6 20 13.2 20 20 C18.68 20 17.36 20 16 20 C15.67 17.03 15.34 14.06 15 11 C14.01 13.97 13.02 16.94 12 20 C10.68 20 9.36 20 8 20 C7.01 17.36 6.02 14.72 5 12 C4.67 14.64 4.34 17.28 4 20 C2.68 20 1.36 20 0 20 C0 13.4 0 6.8 0 0 Z " fill="#000000" transform="translate(106,190)"/>
<path d="M0 0 C11.63157895 0 11.63157895 0 15 2 C17.81183128 6.21774693 17.80406155 10.04568133 17 15 C14.37712069 17.9871681 11.9458367 19.54904723 8 20 C5.36 20 2.72 20 0 20 C0 13.4 0 6.8 0 0 Z M5 4 C5 7.96 5 11.92 5 16 C7.93443402 15.73343428 7.93443402 15.73343428 11 15 C13.32038095 12.17431454 13.32038095 12.17431454 12.8125 8.9375 C12.26245502 5.70259047 12.26245502 5.70259047 9 4 C7.68 4 6.36 4 5 4 Z " fill="#000000" transform="translate(373,190)"/>
<path d="M0 0 C2.50160818 1.87620613 3.61945652 3.23891303 5 6 C5.5811138 13.08958838 5.5811138 13.08958838 3.125 16.9375 C0.39102013 19.5910687 -0.47384331 19.95036258 -4.3125 20.3125 C-8.57536111 19.95124058 -10.01992054 18.98007946 -13 16 C-14.59453633 12.81092735 -14.38561702 9.47055318 -14 6 C-10.92880355 -0.56119242 -6.78979621 -0.90611159 0 0 Z M-9 6 C-9.3176246 7.91006306 -9.3176246 7.91006306 -9.25 10 C-9.25515625 10.70125 -9.2603125 11.4025 -9.265625 12.125 C-9.15705515 14.2435669 -9.15705515 14.2435669 -7 16 C-4.5 16.33333333 -4.5 16.33333333 -2 16 C0.15705515 14.2435669 0.15705515 14.2435669 0.265625 12.125 C0.26046875 11.42375 0.2553125 10.7225 0.25 10 C0.25515625 9.29875 0.2603125 8.5975 0.265625 7.875 C0.15705515 5.7564331 0.15705515 5.7564331 -2 4 C-5.9674509 3.56530472 -5.9674509 3.56530472 -9 6 Z " fill="#000000" transform="translate(197,190)"/>
<path d="M0 0 C2.5 1.4375 2.5 1.4375 4 4 C5.16149803 8.35358704 5.53352156 11.74622434 3.75 15.9375 C1.18722882 18.95790889 -0.40529928 19.94493512 -4.375 20.3125 C-8.18677821 19.98389843 -9.99291148 19.29953828 -13 17 C-14.86654947 13.26690106 -14.5424959 9.06552807 -14 5 C-10.53041582 -0.59610351 -6.12071969 -1.18982215 0 0 Z M-8.875 5.625 C-10.38776998 8.81862551 -9.94757993 10.64702485 -9 14 C-8.34 14.66 -7.68 15.32 -7 16 C-3.93008319 15.83557723 -3.93008319 15.83557723 -1 15 C0.38550197 12.22899606 0.1877467 10.0665294 0 7 C-0.66 6.01 -1.32 5.02 -2 4 C-5.16033546 3.4327603 -6.42236475 3.49938279 -8.875 5.625 Z " fill="#000000" transform="translate(43,190)"/>
<path d="M0 0 C10 0 10 0 14 2 C14.875 4.9375 14.875 4.9375 15 8 C14.01 9.485 14.01 9.485 13 11 C12.34 11 11.68 11 11 11 C11.3609375 11.48210937 11.721875 11.96421875 12.09375 12.4609375 C12.5578125 13.09257812 13.021875 13.72421875 13.5 14.375 C13.9640625 15.00148437 14.428125 15.62796875 14.90625 16.2734375 C16 18 16 18 16 20 C13.8125 20.375 13.8125 20.375 11 20 C8.91167347 18.17130326 7.61663209 16.30947441 6 14 C6 13.34 6 12.68 6 12 C5.34 12 4.68 12 4 12 C4 14.64 4 17.28 4 20 C2.68 20 1.36 20 0 20 C0 13.4 0 6.8 0 0 Z M4 4 C4 5.65 4 7.3 4 9 C5.65 8.67 7.3 8.34 9 8 C9 6.68 9 5.36 9 4 C7.35 4 5.7 4 4 4 Z " fill="#000000" transform="translate(165,190)"/>
<path d="M0 0 C10 0 10 0 14 3 C14.25 6.6875 14.25 6.6875 14 10 C13.01 10.33 12.02 10.66 11 11 C12.65 13.97 14.3 16.94 16 20 C13.3125 20.4375 13.3125 20.4375 10 20 C7.95224699 17.88875077 6.46519774 15.54140493 5 13 C4.67 15.31 4.34 17.62 4 20 C2.68 20 1.36 20 0 20 C0 13.4 0 6.8 0 0 Z M4 4 C4 5.65 4 7.3 4 9 C5.65 8.67 7.3 8.34 9 8 C9 6.68 9 5.36 9 4 C7.35 4 5.7 4 4 4 Z " fill="#000000" transform="translate(213,190)"/>
<path d="M0 0 C1.65 0 3.3 0 5 0 C5 2.64 5 5.28 5 8 C7.31 8 9.62 8 12 8 C12 5.36 12 2.72 12 0 C13.32 0 14.64 0 16 0 C16 6.6 16 13.2 16 20 C14.68 20 13.36 20 12 20 C12 17.36 12 14.72 12 12 C9.69 12 7.38 12 5 12 C5 14.64 5 17.28 5 20 C3.35 20 1.7 20 0 20 C0 13.4 0 6.8 0 0 Z " fill="#000000" transform="translate(69,190)"/>
<path d="M0 0 C1.32 0 2.64 0 4 0 C4.33 1.98 4.66 3.96 5 6 C5.70125 5.01 6.4025 4.02 7.125 3 C9.32959535 0.30900395 9.64418661 0.04028076 13.3125 -0.375 C14.199375 -0.25125 15.08625 -0.1275 16 0 C15.3503125 0.81404297 15.3503125 0.81404297 14.6875 1.64453125 C14.130625 2.35996094 13.57375 3.07539063 13 3.8125 C12.443125 4.52019531 11.88625 5.22789062 11.3125 5.95703125 C9.72974317 8.01595999 9.72974317 8.01595999 10 11 C11.31043011 12.81703343 11.31043011 12.81703343 13 14.5625 C16 17.79166667 16 17.79166667 16 20 C13.875 20.375 13.875 20.375 11 20 C8.76086748 18.20659643 6.87545461 16.16547337 5 14 C4.67 15.98 4.34 17.96 4 20 C2.68 20 1.36 20 0 20 C0 13.4 0 6.8 0 0 Z " fill="#000000" transform="translate(12,190)"/>
<path d="M0 0 C4.29 0 8.58 0 13 0 C13 1.32 13 2.64 13 4 C10.36 4 7.72 4 5 4 C5 5.32 5 6.64 5 8 C7.31 8 9.62 8 12 8 C12 9.32 12 10.64 12 12 C9.69 12 7.38 12 5 12 C5 13.32 5 14.64 5 16 C7.97 16 10.94 16 14 16 C14 17.32 14 18.64 14 20 C9.38 20 4.76 20 0 20 C0 13.4 0 6.8 0 0 Z " fill="#000000" transform="translate(130,190)"/>
<path d="M0 0 C2.26171875 -0.02734375 2.26171875 -0.02734375 5 1 C6.71270696 3.63439211 7.73087332 6.49824516 8.8125 9.4375 C9.12380859 10.22705078 9.43511719 11.01660156 9.75585938 11.83007812 C12 17.61552198 12 17.61552198 12 20 C10.35 20 8.7 20 7 20 C6.79375 19.360625 6.5875 18.72125 6.375 18.0625 C5.10461791 15.65074923 5.10461791 15.65074923 1.875 15.25 C0.92625 15.1675 -0.0225 15.085 -1 15 C-1.99 17.475 -1.99 17.475 -3 20 C-4.32 20 -5.64 20 -7 20 C-6.41161801 15.15888235 -4.92346884 11.03928805 -2.9375 6.625 C-2.65583984 5.98433594 -2.37417969 5.34367188 -2.08398438 4.68359375 C-1.39540579 3.11970341 -0.69855289 1.55946059 0 0 Z M2 8 C1.67 8.99 1.34 9.98 1 11 C1.99 10.67 2.98 10.34 4 10 C3.34 9.34 2.68 8.68 2 8 Z " fill="#000000" transform="translate(237,190)"/>
<path d="M0 0 C4.29 0 8.58 0 13 0 C13 1.32 13 2.64 13 4 C10.03 4 7.06 4 4 4 C4 5.32 4 6.64 4 8 C6.64 8 9.28 8 12 8 C12 9.32 12 10.64 12 12 C9.36 12 6.72 12 4 12 C4 13.32 4 14.64 4 16 C6.97 16 9.94 16 13 16 C13 17.32 13 18.64 13 20 C8.71 20 4.42 20 0 20 C0 13.4 0 6.8 0 0 Z " fill="#000000" transform="translate(357,190)"/>
<path d="M0 0 C0 1.32 0 2.64 0 4 C-1.11375 4.103125 -2.2275 4.20625 -3.375 4.3125 C-4.57125 4.539375 -5.7675 4.76625 -7 5 C-9.35014158 7.837578 -9.35014158 7.837578 -8.6875 11.125 C-8.29355679 13.88086422 -8.29355679 13.88086422 -7 15 C-4.32941149 15.14115161 -1.67567762 15.04247107 1 15 C0.67 16.65 0.34 18.3 0 20 C-8.63502756 20.4390692 -8.63502756 20.4390692 -13 17 C-14.86654947 13.26690106 -14.5424959 9.06552807 -14 5 C-10.39378553 -0.81647495 -6.2386292 -0.61163031 0 0 Z " fill="#000000" transform="translate(65,190)"/>
<path d="M0 0 C5.61 0 11.22 0 17 0 C17 1.32 17 2.64 17 4 C15.02 4 13.04 4 11 4 C11 9.28 11 14.56 11 20 C9.35 20 7.7 20 6 20 C6 14.72 6 9.44 6 4 C4.02 4 2.04 4 0 4 C0 2.68 0 1.36 0 0 Z " fill="#000000" transform="translate(338,190)"/>
<path d="M0 0 C1.65 0 3.3 0 5 0 C5 5.28 5 10.56 5 16 C7.64 16 10.28 16 13 16 C13 17.32 13 18.64 13 20 C8.71 20 4.42 20 0 20 C0 13.4 0 6.8 0 0 Z " fill="#000000" transform="translate(260,190)"/>
<path d="M0 0 C5.28 0 10.56 0 16 0 C16 1.32 16 2.64 16 4 C14.02 4 12.04 4 10 4 C10 9.28 10 14.56 10 20 C8.68 20 7.36 20 6 20 C6 14.72 6 9.44 6 4 C4.02 4 2.04 4 0 4 C0 2.68 0 1.36 0 0 Z " fill="#000000" transform="translate(146,190)"/>
<path d="M0 0 C1.32 0 2.64 0 4 0 C4 5.28 4 10.56 4 16 C6.97 16 9.94 16 13 16 C13 17.32 13 18.64 13 20 C8.71 20 4.42 20 0 20 C0 13.4 0 6.8 0 0 Z " fill="#000000" transform="translate(284,190)"/>
<path d="M0 0 C1.65 0 3.3 0 5 0 C5 6.6 5 13.2 5 20 C3.35 20 1.7 20 0 20 C0 13.4 0 6.8 0 0 Z " fill="#000000" transform="translate(299,190)"/>
<path d="M0 0 C1.65 0 3.3 0 5 0 C5 6.6 5 13.2 5 20 C3.35 20 1.7 20 0 20 C0 13.4 0 6.8 0 0 Z " fill="#000000" transform="translate(251,190)"/>
<path d="M0 0 C1.32 0 2.64 0 4 0 C4 6.6 4 13.2 4 20 C2.68 20 1.36 20 0 20 C0 13.4 0 6.8 0 0 Z " fill="#000000" transform="translate(332,190)"/>
<path d="M0 0 C1.32 0 2.64 0 4 0 C4 6.6 4 13.2 4 20 C2.68 20 1.36 20 0 20 C0 13.4 0 6.8 0 0 Z " fill="#000000" transform="translate(90,190)"/>
</svg>
